# xmcd CD database file
# Copyright (C) 1996 Ti Kan
#
# Track frame offsets:
# 	150
# 	22087
# 	35875
# 	50965
# 	66510
# 	80525
# 	101460
# 	118125
# 	138917
# 	156635
# 	170505
# 	187815
# 	208682
# 	225797
# 	244965
# 	262440
# 	285280
# 	301505
# 	314865
# 	329112
#
# Disc length: 4582 seconds
#
# Revision: 1
# Processed by: cddbd v1.4b41PL1 Copyright (c) Steve Scherf et al.
# Submitted via: DiscPlay 3.4.1
#
DISCID=3611e414
DTITLE=Dan Seals - Portrait
DYEAR=1900
DGENRE=
TTITLE0=Everything That Glitters (Is Not Gold)
TTITLE1=Three Time Loser
TTITLE2=(You Bring Out) The Wild Side of Me
TTITLE3=My Baby's Got Good Timing
TTITLE4=God Must be a Cowboy at Heart
TTITLE5=They Rage On
TTITLE6=Bop
TTITLE7=You Still Move Me
TTITLE8=Meet Me in Montana
TTITLE9=I Won't be Blue Anymore
TTITLE10=Love on Arrival
TTITLE11=Out on the Front Line
TTITLE12=I Will be There
TTITLE13=Addicted
TTITLE14=Big Wheels in the Moonlight
TTITLE15=In San Antone
TTITLE16=My Old Yellow Car
TTITLE17=Lullaby
TTITLE18=One Friend
TTITLE19=Those
EXTD=
EXTT0=
EXTT1=
EXTT2=
EXTT3=
EXTT4=
EXTT5=
EXTT6=
EXTT7=
EXTT8=
EXTT9=
EXTT10=
EXTT11=
EXTT12=
EXTT13=
EXTT14=
EXTT15=
EXTT16=
EXTT17=
EXTT18=
EXTT19=
PLAYORDER=
